<svg width="21" height="25" viewBox="0 0 21 25" fill="none" xmlns="http://www.w3.org/2000/svg">
<path d="M10.92 15.0773C10.9397 17.3704 10.9771 21.2826 11.0012 23.3957C11.0025 23.546 11.0435 23.6932 11.1202 23.8225C11.1969 23.9518 11.3064 24.0584 11.4377 24.1316C11.569 24.2047 11.7173 24.2418 11.8676 24.239C12.0179 24.2363 12.1647 24.1938 12.2932 24.1158L12.3053 24.1081C14.9321 22.5021 17.3272 20.6339 19.0792 18.0521C19.784 17.0426 20.2996 15.9134 20.6006 14.7195C20.6412 14.5494 20.6428 14.3724 20.6052 14.2016C20.5676 14.0309 20.4918 13.8708 20.3836 13.7335C20.2753 13.5962 20.1374 13.4852 19.9801 13.4088C19.8228 13.3325 19.6503 13.2927 19.4754 13.2925H12.6917C12.4579 13.2923 12.2263 13.3385 12.0104 13.4283C11.7946 13.5181 11.5986 13.6498 11.4339 13.8157C11.2692 13.9817 11.139 14.1786 11.0507 14.3951C10.9625 14.6117 10.9181 14.8435 10.92 15.0773Z" fill="#E01E5A"/>
<path d="M9.95024 10.4483C9.92102 9.41236 9.48438 8.42978 8.73509 7.71388C7.83388 6.8445 6.47603 6.40876 5.23892 6.44059C4.45141 6.46712 3.68064 6.67507 2.98666 7.04824C2.29267 7.42141 1.69418 7.9497 1.2378 8.59204C0.6187 9.44715 0.277315 10.468 0.111562 11.5031C-0.167389 13.1204 0.0800197 14.7845 0.817388 16.2507C1.17853 16.9686 1.90411 17.3484 2.69445 17.3253H2.70434C2.70434 17.3253 8.37835 17.2869 8.41237 17.2836C9.33115 17.2057 9.95574 16.5229 9.96123 15.6031C9.96671 13.8863 9.98207 12.1662 9.95024 10.4483Z" fill="#ECB22E"/>
<path d="M8.65222 24.1535C6.48976 22.8439 4.5194 21.3665 2.86846 19.4488C2.77417 19.3389 2.71328 19.2044 2.69301 19.061C2.67275 18.9176 2.69394 18.7715 2.75408 18.6398C2.81422 18.5081 2.91079 18.3963 3.0324 18.3177C3.15401 18.2392 3.29557 18.197 3.44035 18.1963C4.80918 18.1875 6.7554 18.1799 7.88054 18.1832C9.19778 18.1832 9.94531 18.9318 9.95299 20.26C9.95299 21.0427 9.953 22.3873 9.94312 23.4301C9.94197 23.5804 9.90108 23.7277 9.82461 23.857C9.74815 23.9864 9.63883 24.0932 9.50774 24.1667C9.37665 24.2401 9.22846 24.2776 9.07821 24.2753C8.92796 24.273 8.78099 24.231 8.65222 24.1535Z" fill="#40C183"/>
<path d="M16.5507 6.64802C14.2796 6.17711 11.7329 7.15842 11.0622 9.52396C10.9511 9.92702 10.8819 10.3405 10.8558 10.7578C10.8421 10.9652 10.8713 11.1732 10.9414 11.3688C11.0116 11.5645 11.1214 11.7436 11.2638 11.8949C11.4062 12.0463 11.5783 12.1668 11.7693 12.2488C11.9603 12.3307 12.1661 12.3724 12.374 12.3714L19.509 12.3561C19.6752 12.355 19.8391 12.3181 19.9898 12.248C20.1404 12.1779 20.2742 12.0762 20.382 11.9497C20.4898 11.8233 20.5691 11.6751 20.6145 11.5153C20.6599 11.3554 20.6704 11.1877 20.6451 11.0234C20.6232 10.8796 20.6056 10.7754 20.5957 10.7391C20.451 10.1841 20.2356 9.64986 19.9547 9.14968C19.602 8.51131 19.115 7.95701 18.5273 7.52511C17.9397 7.09321 17.2653 6.79399 16.5507 6.64802Z" fill="#36C5F0"/>
<path d="M15.8912 0.623484C11.6992 0.65396 10.8934 3.97825 10.7365 5.27648C10.7289 5.34112 10.7356 5.40666 10.7563 5.4684C10.777 5.53014 10.811 5.58659 10.856 5.63362C10.9009 5.68065 10.9557 5.7171 11.0164 5.74042C11.0771 5.76373 11.1421 5.77332 11.2069 5.76846C12.0847 5.70294 13.8977 5.4251 14.9617 4.25678C15.8842 3.24465 16.2151 1.86312 16.3306 1.13348C16.3403 1.07019 16.3362 1.00551 16.3186 0.943937C16.3009 0.882359 16.2701 0.825339 16.2283 0.776834C16.1865 0.728329 16.1348 0.689504 16.0765 0.663024C16.0183 0.636544 15.9551 0.623053 15.8912 0.623484Z" fill="#40C183"/>
</svg>
